<svg width="24" height="24" viewBox="0 0 24 24" fill="none" xmlns="http://www.w3.org/2000/svg">
<path d="M17 18.4297H13L8.55 21.3897C8.39982 21.4898 8.22528 21.5473 8.045 21.556C7.86472 21.5646 7.68546 21.5242 7.52635 21.439C7.36724 21.3538 7.23424 21.227 7.14154 21.0722C7.04884 20.9173 6.99992 20.7402 7 20.5597V18.4297C4 18.4297 2 16.4297 2 13.4297V7.42969C2 4.42969 4 2.42969 7 2.42969H17C20 2.42969 22 4.42969 22 7.42969V13.4297C22 16.4297 20 18.4297 17 18.4297Z" stroke="#717171" stroke-width="2" stroke-miterlimit="10" stroke-linecap="round" stroke-linejoin="round"/>
<path d="M12.0001 11.3604V11.1504C12.0001 10.4704 12.4201 10.1104 12.8401 9.82035C13.2501 9.54035 13.6601 9.18035 13.6601 8.52035C13.6601 7.60035 12.9201 6.86035 12.0001 6.86035C11.0801 6.86035 10.3401 7.60035 10.3401 8.52035M11.9951 13.7504H12.0051" stroke="#717171" stroke-width="2" stroke-linecap="round" stroke-linejoin="round"/>
</svg>
