<svg width="80" height="80" viewBox="0 0 80 80" fill="none" xmlns="http://www.w3.org/2000/svg">
<path d="M55.7783 38.5914V49.3524C55.7783 50.0519 55.7514 50.7244 55.6707 51.3701C55.0519 58.6338 50.7745 62.2387 42.8921 62.2387H41.816C41.1435 62.2387 40.4978 62.5615 40.0943 63.0996L36.866 67.404C35.4402 69.3141 33.1266 69.3141 31.7008 67.404L28.4725 63.0996C28.2572 62.8488 27.994 62.6435 27.6984 62.4957C27.4028 62.3479 27.0806 62.2605 26.7508 62.2387H25.6747C17.0929 62.2387 12.7886 60.1134 12.7886 49.3524V38.5914C12.7886 30.7089 16.4204 26.4314 23.6571 25.8127C24.3027 25.732 24.9753 25.7051 25.6747 25.7051H42.8921C51.4739 25.7051 55.7783 30.0095 55.7783 38.5914Z" stroke="#CCCCCC" stroke-width="2" stroke-miterlimit="10" stroke-linecap="round" stroke-linejoin="round"/>
<path d="M66.5405 27.8316V38.5926C66.5405 46.502 62.9087 50.7526 55.6721 51.3713C55.7528 50.7257 55.7797 50.0531 55.7797 49.3536V38.5926C55.7797 30.0107 51.4753 25.7063 42.8935 25.7063H25.6761C24.9767 25.7063 24.3041 25.7332 23.6584 25.8139C24.2772 18.5772 28.5546 14.9453 36.437 14.9453H53.6544C62.2362 14.9453 66.5405 19.2497 66.5405 27.8316Z" stroke="#CCCCCC" stroke-width="2" stroke-miterlimit="10" stroke-linecap="round" stroke-linejoin="round"/>
<path d="M43.7102 45.2129H43.7371M34.2944 45.2129H34.3213M24.8787 45.2129H24.9056" stroke="#CCCCCC" stroke-width="4.42916" stroke-linecap="round" stroke-linejoin="round"/>
</svg>
